<mxfile host="app.diagrams.net" agent="Mozilla/5.0 (Macintosh; Intel Mac OS X 10_15_7) AppleWebKit/537.36 (KHTML, like Gecko) Chrome/133.0.0.0 Safari/537.36" version="26.0.11">
  <diagram name="Page-1" id="RaeWeo8DV0pTtQ2JfHgA">
    <mxGraphModel dx="1314" dy="831" grid="0" gridSize="10" guides="1" tooltips="1" connect="1" arrows="1" fold="1" page="1" pageScale="1" pageWidth="850" pageHeight="1100" math="0" shadow="0">
      <root>
        <mxCell id="0" />
        <mxCell id="1" parent="0" />
        <mxCell id="WqrnubLRcmIVWC9BtcyL-24" value="Python" style="rounded=0;whiteSpace=wrap;html=1;strokeColor=none;fillColor=#FFFFCC;verticalAlign=bottom;align=right;textOpacity=50;" vertex="1" parent="1">
          <mxGeometry x="590" y="222" width="215" height="248" as="geometry" />
        </mxCell>
        <mxCell id="WqrnubLRcmIVWC9BtcyL-25" value="" style="rounded=0;whiteSpace=wrap;html=1;strokeColor=none;fillColor=#FFFFCC;verticalAlign=top;" vertex="1" parent="1">
          <mxGeometry x="260" y="290" width="330" height="180" as="geometry" />
        </mxCell>
        <mxCell id="WqrnubLRcmIVWC9BtcyL-23" value="Adobe Acrobat" style="rounded=0;whiteSpace=wrap;html=1;strokeColor=none;fillColor=#FFCCCC;verticalAlign=top;" vertex="1" parent="1">
          <mxGeometry x="280" y="110" width="160" height="140" as="geometry" />
        </mxCell>
        <mxCell id="WqrnubLRcmIVWC9BtcyL-3" style="edgeStyle=orthogonalEdgeStyle;rounded=0;orthogonalLoop=1;jettySize=auto;html=1;entryX=0;entryY=0.5;entryDx=0;entryDy=0;endArrow=blockThin;endFill=1;" edge="1" parent="1" source="WqrnubLRcmIVWC9BtcyL-1" target="WqrnubLRcmIVWC9BtcyL-2">
          <mxGeometry relative="1" as="geometry" />
        </mxCell>
        <mxCell id="WqrnubLRcmIVWC9BtcyL-1" value="&lt;div&gt;&lt;b&gt;Scanned&lt;/b&gt;&lt;/div&gt;&lt;div&gt;Image&lt;/div&gt;&lt;div&gt;or&amp;nbsp;&lt;/div&gt;&lt;div&gt;PDF&lt;/div&gt;" style="whiteSpace=wrap;html=1;shape=mxgraph.basic.document" vertex="1" parent="1">
          <mxGeometry x="160" y="120" width="80" height="120" as="geometry" />
        </mxCell>
        <mxCell id="WqrnubLRcmIVWC9BtcyL-2" value="Recognise&lt;div&gt;Text&lt;/div&gt;" style="ellipse;whiteSpace=wrap;html=1;aspect=fixed;fillColor=none;" vertex="1" parent="1">
          <mxGeometry x="320" y="140" width="80" height="80" as="geometry" />
        </mxCell>
        <mxCell id="WqrnubLRcmIVWC9BtcyL-9" style="edgeStyle=orthogonalEdgeStyle;rounded=0;orthogonalLoop=1;jettySize=auto;html=1;endArrow=blockThin;endFill=1;curved=1;" edge="1" parent="1" source="WqrnubLRcmIVWC9BtcyL-4" target="WqrnubLRcmIVWC9BtcyL-8">
          <mxGeometry relative="1" as="geometry" />
        </mxCell>
        <mxCell id="WqrnubLRcmIVWC9BtcyL-4" value="PDF&lt;div&gt;&lt;b&gt;OCRred&lt;/b&gt;&lt;/div&gt;" style="whiteSpace=wrap;html=1;shape=mxgraph.basic.document" vertex="1" parent="1">
          <mxGeometry x="480" y="120" width="80" height="120" as="geometry" />
        </mxCell>
        <mxCell id="WqrnubLRcmIVWC9BtcyL-5" style="edgeStyle=orthogonalEdgeStyle;rounded=0;orthogonalLoop=1;jettySize=auto;html=1;entryX=0;entryY=0.5;entryDx=0;entryDy=0;entryPerimeter=0;endArrow=blockThin;endFill=1;" edge="1" parent="1" source="WqrnubLRcmIVWC9BtcyL-2" target="WqrnubLRcmIVWC9BtcyL-4">
          <mxGeometry relative="1" as="geometry" />
        </mxCell>
        <mxCell id="WqrnubLRcmIVWC9BtcyL-7" value="&lt;font style=&quot;color: rgb(255, 0, 0);&quot;&gt;&lt;b&gt;ERRORS&lt;/b&gt;&lt;/font&gt;" style="text;html=1;align=center;verticalAlign=middle;whiteSpace=wrap;rounded=0;" vertex="1" parent="1">
          <mxGeometry x="490" y="240" width="60" height="30" as="geometry" />
        </mxCell>
        <mxCell id="WqrnubLRcmIVWC9BtcyL-13" style="edgeStyle=orthogonalEdgeStyle;rounded=0;orthogonalLoop=1;jettySize=auto;html=1;exitX=0.5;exitY=1;exitDx=0;exitDy=0;curved=1;" edge="1" parent="1" source="WqrnubLRcmIVWC9BtcyL-8" target="WqrnubLRcmIVWC9BtcyL-11">
          <mxGeometry relative="1" as="geometry" />
        </mxCell>
        <mxCell id="WqrnubLRcmIVWC9BtcyL-8" value="Decompose&lt;div&gt;PDF&lt;/div&gt;" style="ellipse;whiteSpace=wrap;html=1;aspect=fixed;fillColor=none;" vertex="1" parent="1">
          <mxGeometry x="640" y="250" width="80" height="80" as="geometry" />
        </mxCell>
        <mxCell id="WqrnubLRcmIVWC9BtcyL-11" value="OUTPUT" style="sketch=0;pointerEvents=1;shadow=0;dashed=0;html=1;strokeColor=default;labelPosition=center;verticalLabelPosition=bottom;verticalAlign=top;outlineConnect=0;align=center;shape=mxgraph.office.concepts.folder;fillColor=default;" vertex="1" parent="1">
          <mxGeometry x="440" y="320" width="160" height="120" as="geometry" />
        </mxCell>
        <mxCell id="WqrnubLRcmIVWC9BtcyL-19" style="edgeStyle=orthogonalEdgeStyle;rounded=0;orthogonalLoop=1;jettySize=auto;html=1;endArrow=blockThin;endFill=1;" edge="1" parent="1" source="WqrnubLRcmIVWC9BtcyL-14" target="WqrnubLRcmIVWC9BtcyL-18">
          <mxGeometry relative="1" as="geometry" />
        </mxCell>
        <mxCell id="WqrnubLRcmIVWC9BtcyL-14" value=".txt" style="ellipse;whiteSpace=wrap;html=1;aspect=fixed;fontSize=10;" vertex="1" parent="1">
          <mxGeometry x="500" y="350" width="40" height="40" as="geometry" />
        </mxCell>
        <mxCell id="WqrnubLRcmIVWC9BtcyL-15" value=".png" style="ellipse;whiteSpace=wrap;html=1;aspect=fixed;fontSize=10;" vertex="1" parent="1">
          <mxGeometry x="450" y="394" width="40" height="40" as="geometry" />
        </mxCell>
        <mxCell id="WqrnubLRcmIVWC9BtcyL-16" value=".png" style="ellipse;whiteSpace=wrap;html=1;aspect=fixed;fontSize=10;" vertex="1" parent="1">
          <mxGeometry x="500" y="394" width="40" height="40" as="geometry" />
        </mxCell>
        <mxCell id="WqrnubLRcmIVWC9BtcyL-17" value="..." style="ellipse;whiteSpace=wrap;html=1;aspect=fixed;fontSize=10;" vertex="1" parent="1">
          <mxGeometry x="550" y="394" width="40" height="40" as="geometry" />
        </mxCell>
        <mxCell id="WqrnubLRcmIVWC9BtcyL-18" value="&lt;div&gt;text&lt;/div&gt;correction" style="ellipse;whiteSpace=wrap;html=1;aspect=fixed;fillColor=none;" vertex="1" parent="1">
          <mxGeometry x="320" y="330" width="80" height="80" as="geometry" />
        </mxCell>
        <mxCell id="WqrnubLRcmIVWC9BtcyL-20" value="&lt;div&gt;PDF&lt;/div&gt;&lt;div&gt;&lt;b&gt;OCRred&lt;/b&gt;&lt;/div&gt;" style="whiteSpace=wrap;html=1;shape=mxgraph.basic.document" vertex="1" parent="1">
          <mxGeometry x="160" y="310" width="80" height="120" as="geometry" />
        </mxCell>
        <mxCell id="WqrnubLRcmIVWC9BtcyL-21" style="edgeStyle=orthogonalEdgeStyle;rounded=0;orthogonalLoop=1;jettySize=auto;html=1;entryX=1;entryY=0.5;entryDx=0;entryDy=0;entryPerimeter=0;endArrow=blockThin;endFill=1;" edge="1" parent="1" source="WqrnubLRcmIVWC9BtcyL-18" target="WqrnubLRcmIVWC9BtcyL-20">
          <mxGeometry relative="1" as="geometry" />
        </mxCell>
        <mxCell id="WqrnubLRcmIVWC9BtcyL-22" value="comparison" style="edgeStyle=orthogonalEdgeStyle;rounded=0;orthogonalLoop=1;jettySize=auto;html=1;entryX=0.5;entryY=0;entryDx=0;entryDy=0;entryPerimeter=0;endArrow=openThin;endFill=0;startArrow=openThin;startFill=0;dashed=1;" edge="1" parent="1" source="WqrnubLRcmIVWC9BtcyL-1" target="WqrnubLRcmIVWC9BtcyL-20">
          <mxGeometry relative="1" as="geometry" />
        </mxCell>
        <mxCell id="WqrnubLRcmIVWC9BtcyL-26" value="PyMuPDF&lt;div&gt;(fitz)&lt;/div&gt;" style="text;html=1;align=center;verticalAlign=middle;whiteSpace=wrap;rounded=0;" vertex="1" parent="1">
          <mxGeometry x="727" y="275" width="60" height="30" as="geometry" />
        </mxCell>
        <mxCell id="WqrnubLRcmIVWC9BtcyL-27" value="openai&lt;div&gt;(gpt-3.5-turbo)&lt;/div&gt;" style="text;html=1;align=center;verticalAlign=middle;whiteSpace=wrap;rounded=0;" vertex="1" parent="1">
          <mxGeometry x="300" y="410" width="120" height="30" as="geometry" />
        </mxCell>
        <mxCell id="WqrnubLRcmIVWC9BtcyL-28" value="&lt;b&gt;ocrc-decomposer.py&lt;/b&gt;" style="text;html=1;align=center;verticalAlign=middle;whiteSpace=wrap;rounded=0;rotation=-90;" vertex="1" parent="1">
          <mxGeometry x="567" y="275" width="123" height="30" as="geometry" />
        </mxCell>
        <mxCell id="WqrnubLRcmIVWC9BtcyL-29" value="&lt;b&gt;ocrc-correction&lt;span style=&quot;background-color: transparent; color: light-dark(rgb(0, 0, 0), rgb(255, 255, 255));&quot;&gt;.py&lt;/span&gt;&lt;/b&gt;" style="text;html=1;align=center;verticalAlign=middle;whiteSpace=wrap;rounded=0;rotation=0;" vertex="1" parent="1">
          <mxGeometry x="298.5" y="303" width="123" height="30" as="geometry" />
        </mxCell>
        <mxCell id="WqrnubLRcmIVWC9BtcyL-30" value="&lt;font style=&quot;color: rgb(151, 208, 119);&quot;&gt;&lt;b style=&quot;&quot;&gt;CORRECTED&lt;/b&gt;&lt;/font&gt;" style="text;html=1;align=center;verticalAlign=middle;whiteSpace=wrap;rounded=0;" vertex="1" parent="1">
          <mxGeometry x="170" y="430" width="60" height="30" as="geometry" />
        </mxCell>
      </root>
    </mxGraphModel>
  </diagram>
</mxfile>
